<svg width="66" height="13" viewBox="0 0 66 13" fill="none" xmlns="http://www.w3.org/2000/svg">
<path d="M0.688 6.416C0.688 5.328 0.933333 4.352 1.424 3.488C1.91467 2.61333 2.58133 1.93067 3.424 1.44C4.27733 0.949333 5.22133 0.704 6.256 0.704C7.472 0.704 8.53333 0.997333 9.44 1.584C10.3467 2.17067 11.008 3.00267 11.424 4.08H9.68C9.37067 3.408 8.92267 2.89067 8.336 2.528C7.76 2.16533 7.06667 1.984 6.256 1.984C5.47733 1.984 4.77867 2.16533 4.16 2.528C3.54133 2.89067 3.056 3.408 2.704 4.08C2.352 4.74133 2.176 5.52 2.176 6.416C2.176 7.30133 2.352 8.08 2.704 8.752C3.056 9.41333 3.54133 9.92533 4.16 10.288C4.77867 10.6507 5.47733 10.832 6.256 10.832C7.06667 10.832 7.76 10.656 8.336 10.304C8.92267 9.94133 9.37067 9.424 9.68 8.752H11.424C11.008 9.81867 10.3467 10.6453 9.44 11.232C8.53333 11.808 7.472 12.096 6.256 12.096C5.22133 12.096 4.27733 11.856 3.424 11.376C2.58133 10.8853 1.91467 10.208 1.424 9.344C0.933333 8.48 0.688 7.504 0.688 6.416ZM13.0474 7.584C13.0474 6.688 13.2287 5.904 13.5914 5.232C13.954 4.54933 14.45 4.02133 15.0794 3.648C15.7194 3.27467 16.4287 3.088 17.2074 3.088C17.9754 3.088 18.642 3.25333 19.2074 3.584C19.7727 3.91467 20.194 4.33067 20.4714 4.832V3.232H21.9434V12H20.4714V10.368C20.1834 10.88 19.7514 11.3067 19.1754 11.648C18.61 11.9787 17.9487 12.144 17.1914 12.144C16.4127 12.144 15.7087 11.952 15.0794 11.568C14.45 11.184 13.954 10.6453 13.5914 9.952C13.2287 9.25867 13.0474 8.46933 13.0474 7.584ZM20.4714 7.6C20.4714 6.93867 20.338 6.36267 20.0714 5.872C19.8047 5.38133 19.442 5.008 18.9834 4.752C18.5354 4.48533 18.0394 4.352 17.4954 4.352C16.9514 4.352 16.4554 4.48 16.0074 4.736C15.5594 4.992 15.202 5.36533 14.9354 5.856C14.6687 6.34667 14.5354 6.92267 14.5354 7.584C14.5354 8.256 14.6687 8.84267 14.9354 9.344C15.202 9.83467 15.5594 10.2133 16.0074 10.48C16.4554 10.736 16.9514 10.864 17.4954 10.864C18.0394 10.864 18.5354 10.736 18.9834 10.48C19.442 10.2133 19.8047 9.83467 20.0714 9.344C20.338 8.84267 20.4714 8.26133 20.4714 7.6ZM34.9479 3.072C35.6305 3.072 36.2385 3.216 36.7719 3.504C37.3052 3.78133 37.7265 4.20267 38.0359 4.768C38.3452 5.33333 38.4999 6.02133 38.4999 6.832V12H37.0599V7.04C37.0599 6.16533 36.8412 5.49867 36.4039 5.04C35.9772 4.57067 35.3959 4.336 34.6599 4.336C33.9025 4.336 33.2999 4.58133 32.8519 5.072C32.4039 5.552 32.1799 6.25067 32.1799 7.168V12H30.7399V7.04C30.7399 6.16533 30.5212 5.49867 30.0839 5.04C29.6572 4.57067 29.0759 4.336 28.3399 4.336C27.5825 4.336 26.9799 4.58133 26.5319 5.072C26.0839 5.552 25.8599 6.25067 25.8599 7.168V12H24.4039V3.232H25.8599V4.496C26.1479 4.03733 26.5319 3.68533 27.0119 3.44C27.5025 3.19467 28.0412 3.072 28.6279 3.072C29.3639 3.072 30.0145 3.23733 30.5799 3.568C31.1452 3.89867 31.5665 4.384 31.8439 5.024C32.0892 4.40533 32.4945 3.92533 33.0599 3.584C33.6252 3.24267 34.2545 3.072 34.9479 3.072ZM48.8883 7.28C48.8883 7.55733 48.8723 7.85067 48.8403 8.16H41.8323C41.8856 9.024 42.1789 9.70133 42.7123 10.192C43.2563 10.672 43.9123 10.912 44.6803 10.912C45.3096 10.912 45.8323 10.768 46.2483 10.48C46.6749 10.1813 46.9736 9.78667 47.1443 9.296H48.7123C48.4776 10.1387 48.0083 10.8267 47.3043 11.36C46.6003 11.8827 45.7256 12.144 44.6803 12.144C43.8483 12.144 43.1016 11.9573 42.4403 11.584C41.7896 11.2107 41.2776 10.6827 40.9043 10C40.5309 9.30667 40.3443 8.50667 40.3443 7.6C40.3443 6.69333 40.5256 5.89867 40.8883 5.216C41.2509 4.53333 41.7576 4.01067 42.4083 3.648C43.0696 3.27467 43.8269 3.088 44.6803 3.088C45.5123 3.088 46.2483 3.26933 46.8883 3.632C47.5283 3.99467 48.0189 4.496 48.3603 5.136C48.7123 5.76533 48.8883 6.48 48.8883 7.28ZM47.3843 6.976C47.3843 6.42133 47.2616 5.94667 47.0163 5.552C46.7709 5.14667 46.4349 4.84267 46.0083 4.64C45.5923 4.42667 45.1283 4.32 44.6163 4.32C43.8803 4.32 43.2509 4.55467 42.7283 5.024C42.2163 5.49333 41.9229 6.144 41.8483 6.976H47.3843ZM52.2661 4.656C52.5221 4.15467 52.8848 3.76533 53.3541 3.488C53.8341 3.21067 54.4155 3.072 55.0981 3.072V4.576H54.7141C53.0821 4.576 52.2661 5.46133 52.2661 7.232V12H50.8101V3.232H52.2661V4.656ZM56.2349 7.584C56.2349 6.688 56.4162 5.904 56.7789 5.232C57.1415 4.54933 57.6375 4.02133 58.2669 3.648C58.9069 3.27467 59.6162 3.088 60.3949 3.088C61.1629 3.088 61.8295 3.25333 62.3949 3.584C62.9602 3.91467 63.3815 4.33067 63.6589 4.832V3.232H65.1309V12H63.6589V10.368C63.3709 10.88 62.9389 11.3067 62.3629 11.648C61.7975 11.9787 61.1362 12.144 60.3789 12.144C59.6002 12.144 58.8962 11.952 58.2669 11.568C57.6375 11.184 57.1415 10.6453 56.7789 9.952C56.4162 9.25867 56.2349 8.46933 56.2349 7.584ZM63.6589 7.6C63.6589 6.93867 63.5255 6.36267 63.2589 5.872C62.9922 5.38133 62.6295 5.008 62.1709 4.752C61.7229 4.48533 61.2269 4.352 60.6829 4.352C60.1389 4.352 59.6429 4.48 59.1949 4.736C58.7469 4.992 58.3895 5.36533 58.1229 5.856C57.8562 6.34667 57.7229 6.92267 57.7229 7.584C57.7229 8.256 57.8562 8.84267 58.1229 9.344C58.3895 9.83467 58.7469 10.2133 59.1949 10.48C59.6429 10.736 60.1389 10.864 60.6829 10.864C61.2269 10.864 61.7229 10.736 62.1709 10.48C62.6295 10.2133 62.9922 9.83467 63.2589 9.344C63.5255 8.84267 63.6589 8.26133 63.6589 7.6Z" fill="#FAFAFA"/>
</svg>
